<svg width="410" height="410" viewBox="0 0 410 410" fill="none" xmlns="http://www.w3.org/2000/svg">
<path d="M157.647 317.544L156.906 319.411C143.611 315.077 128.8 315.712 115.434 319.396C114.665 316.656 120.122 315.835 122.296 315.356C134.084 312.759 146.3 313.545 157.647 317.544Z" fill="black"/>
<path d="M135.715 262.806C139.694 262.195 139.837 268.995 137.456 271.096C136.075 270.306 133.378 269.296 133.063 267.59C132.716 265.705 133.68 263.119 135.715 262.806Z" fill="black"/>
<path d="M138.16 311.034L133.062 311.5L133.993 298.965L136.316 303.828L138.16 311.034Z" fill="black"/>
<path d="M127.975 318.862H144.457L141.921 377.183L130.51 375.915L127.975 318.862Z" fill="#E3E3E3" stroke="#E3E3E3"/>
<path d="M141.409 288.51L133.055 277.368L139.327 283.163C145.229 288.69 142.223 296.138 142.341 303.144L140.481 303.146L141.823 311.221C148.384 312.653 155.462 313.261 161.248 316.827L159.478 321.713C155.116 320.383 150.685 318.771 146.046 318.932L142.332 377.456C141.523 377.564 141.896 376.401 141.873 375.837C141.678 371.068 141.726 365.735 141.854 360.95C141.883 359.851 142.325 358.836 142.356 357.737C142.704 345.584 143.024 333.423 143.529 321.254L137.7 319.397L136.766 361.663L135.823 354.95L135.376 319.862C135.109 319.594 131.539 320.508 130.946 320.763C128.555 321.792 129.822 322.418 129.833 324.254C129.895 335.432 130.582 346.579 130.759 357.698C130.846 363.141 130.961 369.031 130.74 374.444C130.717 375.008 131.09 376.171 130.281 376.062L127.031 318.931C122.401 318.971 117.938 320.401 113.581 321.723C113.56 320.281 111.454 317.457 112.632 316.371C113.596 315.483 120.261 313.513 121.921 313.123C124.224 312.582 128.203 312.48 129.964 311.886C130.451 311.722 130.663 311.366 130.863 310.929L132.055 293.696C131.816 292.998 125.872 289.386 124.917 289.232C121.445 288.67 116.166 289.359 112.397 289.226C110.631 289.164 108.106 288.237 106.492 288.38C105.697 288.45 98.7825 291.513 98.4938 291.988C98.2636 298.012 97.5075 304.11 95.3802 309.772C89.0784 326.544 79.0712 336.501 76.5312 356.39C75.9531 360.917 76.1856 364.868 76.0011 369.334C75.9778 369.899 76.3518 371.061 75.542 370.953C74.116 356.3 76.7098 341.324 82.2785 327.774C86.8669 316.608 94.2559 306.312 95.0179 293.854C87.1392 296.675 79.8145 301.124 71.9497 303.962C66.6539 305.873 58.5531 308.62 53.0916 307.269C50.6509 306.666 42.2141 301.286 40.5587 299.381C35.6807 293.769 36.0615 285.699 39.7271 279.594C40.6671 278.029 42.6226 276.846 42.9797 274.921C43.4396 272.443 41.2485 269.185 41.1938 266.659C41.0951 262.108 46.0151 258.784 49.0957 256.234C47.4703 256.62 46.245 257.512 44.5518 257.95C36.207 260.109 28.4399 254.896 29.6554 245.818C30.1446 242.165 33.9897 238.392 37.0325 242.065C31.698 241.104 31.7808 246.735 35.7814 248.892C39.9293 251.128 44.085 248.492 44.4784 243.946C44.9987 237.932 40.8789 233.588 38.6581 228.37C31.5506 238.938 13.0567 231.273 17.9945 218.818C18.9539 216.398 22.3932 213.014 24.5094 215.35C20.4037 215.143 20.4753 221.232 23.5913 222.544C28.5336 224.624 34.658 217.864 30.7921 213.478C29.9408 212.512 28.4888 212.019 27.5354 211.165C24.7343 208.655 23.8404 206.564 23.0571 202.874C20.1829 202.881 17.7214 202.955 15.3472 201.074C11.0621 197.678 10.1421 189.013 17.0855 189.349C17.1458 190.166 16.0788 189.681 15.4558 190.261C12.7534 192.777 17.6839 196.597 20.8069 193.301C22.9058 191.085 21.9869 186.561 22.7647 183.649C23.6702 180.258 26.9825 177.702 30.0729 176.333L25.1202 175.031C14.5063 171.023 14.6856 155.17 26.827 154.513C26.2018 155.46 25.0077 155.723 24.3014 156.854C19.7475 164.144 35.5329 164.923 33.5808 155.409C32.8699 151.944 30.3508 150.986 31.0296 146.404C31.1703 145.453 32.105 144.576 31.8748 143.69C31.6641 142.879 29.8029 141.795 29.3547 139.671C27.7104 131.878 33.3803 125.618 40.7466 124.313L40.4579 123.357C35.3143 121.075 32.5632 115.278 33.8344 109.733C34.8281 105.4 40.3934 102.257 43.5291 106.198C38.2176 106.071 38.0576 112.535 41.9037 115.03C44.7681 116.888 49.9121 116.115 51.1613 112.684C52.1858 109.869 49.9871 108.272 49.0841 105.982C45.8376 97.7501 53.0344 93.5419 60.2272 92.728C58.1082 89.5731 59.477 83.1031 63.9379 85.5361C59.7178 87.0557 62.9549 90.1394 66.4927 87.6253C69.7226 85.3299 71.7757 76.7231 75.7018 72.9254C77.9162 70.7833 81.1169 70.0671 83.1263 68.5151C84.1079 67.7569 85.0528 66.1064 86.2018 65.0918C94.0344 58.1755 100.529 63.6645 109.162 62.9983C115.583 62.5029 121.662 58.3075 127.854 57.5627C138.303 56.3059 147.672 60.3668 149.778 71.347C157.189 70.4615 161.725 74.562 160.321 82.1743C159.971 84.0712 158.114 85.7477 157.752 87.4951C156.037 95.7874 166.865 93.5461 165.489 103.609C164.834 108.403 159.295 110.554 159.984 115.685C160.85 122.134 172.014 120.871 167.387 114.568C172.046 115.31 172.063 120.049 171.102 123.853C174.424 122.424 178.955 125.841 179.404 129.234C179.733 131.729 178.967 134.241 179.913 136.861C182.916 136.35 185.523 136.009 188.428 137.229C194.667 132.529 201.053 127.938 207.038 122.913C209.756 120.63 214.287 117.253 216.338 114.575C219.458 110.5 222.139 104.375 225.27 99.8298C236.029 84.2137 252.638 65.686 265.492 51.388C270.014 46.3576 273.544 42.3052 279.796 39.235C288.482 34.9692 308.003 31.8518 317.328 33.4056C319.413 33.7531 326.133 35.4456 327.599 36.5921C329.957 38.4369 333.509 49.8244 335.287 53.0416C335.167 55.5455 330.441 54.4268 328.817 54.6436L328.879 58.5346C332.913 60.4488 333.303 65.6908 335.589 69.2733L332.066 83.4436H368.713C368.802 84.1235 367.456 84.1563 366.96 84.2404C364.002 84.7422 361.081 84.9627 358.129 85.6186C346.767 88.1427 336.69 92.5766 327.187 99.2426C318.619 93.0782 309.14 88.7576 298.862 86.2667C295.008 85.3326 291.317 84.8999 287.431 84.2404C286.935 84.1563 285.588 84.1235 285.678 83.4436H322.788C323.137 79.407 319.491 72.8398 319.599 69.26C319.666 67.0295 322.98 62.2372 323.478 59.7475L325.555 59.274L325.574 55.5731C320.202 55.2144 315.026 53.0344 309.588 52.7699C304.743 52.5343 300.002 53.9786 295.206 54.2011C292.298 54.336 288.755 53.4825 286.374 53.6919C282.096 54.0682 276.995 63.7403 274.929 67.3395C265.065 84.5215 256.982 108.587 243.244 122.472C227.453 138.434 210.721 153.473 195.207 169.592C193.633 171.228 185.73 179.355 185.264 180.537C184.689 181.995 185.322 183.468 184.662 185.044C184.043 186.523 181.732 187.424 180.638 188.911C176.298 194.81 179.471 199.599 180.694 205.514C183.568 219.417 183.628 233.062 179.505 246.725C182.432 253.217 185.977 259.429 188.27 266.207C192.176 277.757 193.277 290.088 192.432 302.21C191.622 302.319 191.996 301.155 191.973 300.591C191.548 290.091 190.648 281.588 187.666 271.457C182.338 253.358 173.409 243.571 162.825 228.98C153.415 216.006 144.682 200.766 144.652 184.238L143.491 186.552L140.486 208.386C138.286 190.85 141.839 173.808 152.163 159.47C154.198 156.645 156.688 154.189 158.573 151.262C149.087 153.619 140.917 162.309 136.529 170.756C119.139 204.232 146.247 236.384 153.153 268.855C154.808 276.632 155.241 284.539 155.785 292.456C155.1 292.492 154.973 290.803 154.916 290.315C154.487 286.666 154.39 283.002 153.799 279.356C148.826 248.643 123.079 218.164 126.622 187.776C126.996 184.566 128.037 181.254 128.191 178.199C119.579 188.205 120.3 203.094 122.612 215.365C125.61 231.281 134.686 244.496 140.232 259.498C144.231 270.317 147.071 281.703 149.754 292.921L146.746 284.565C145.161 287.419 145.617 291.138 144.792 294.242C144.571 295.07 144.923 295.443 143.731 295.243L144.475 283.159C144.07 281.719 135.524 272.264 134.199 272.021C130.209 272.532 126.158 272.561 122.16 272.953C109.806 274.164 96.8183 277.365 84.5786 278.055C77.2822 278.467 69.7697 277.142 62.6595 279.332L54.1988 282.7C58.807 277.039 66.7213 275.178 73.7147 274.609L75.5327 266.448C66.4104 269.612 57.0197 273.686 50.7137 281.305C46.9058 285.906 45.5714 291.492 47.7998 297.24C50.7728 304.909 58.6163 303.247 64.9683 301.616C78.4664 298.152 91.377 290.99 104.17 285.597C107.933 284.941 111.504 286.597 115.205 286.879C118.379 287.121 122.402 286.432 125.379 286.911C126.616 287.11 132.682 291.763 133.775 292.903C136.306 295.541 136.958 300.381 140.943 301.746L137.168 291.828L129.35 282.47C129.277 282.126 129.835 282.153 130.038 282.244C130.607 282.499 138.34 290.314 138.836 291.086C139.971 292.853 139.806 295.35 141.409 296.639V288.51ZM331.6 53.2504C332.023 52.8248 330.027 49.5893 329.649 48.9381C328.164 46.3836 322.33 36.4904 320.335 35.5049C317.337 34.0248 309.045 35.1921 305.452 35.6621C287.509 38.0094 277.158 41.0316 265.28 54.8914C252.522 69.778 235.508 89.9197 225.177 106.239C223.461 108.95 221.768 113.551 219.804 115.723C214.537 121.548 200.661 130.864 193.788 136.122C191.331 138.002 188.594 139.551 186.208 141.537C184.743 146.255 181.785 162.547 184.795 166.105C186.27 167.849 187.946 166.559 189.5 165.734C198.971 160.706 213.711 146.928 222.132 139.42C233.465 129.314 242.765 120.885 250.796 107.738C260.533 91.7987 266.029 72.4578 276.95 57.2866C278.032 55.7826 281.219 51.386 282.76 51.032C285.695 50.3575 289.796 52.0698 292.875 52.3161C299.323 52.8318 305.575 50.9193 311.88 51.402C316.407 51.7486 320.624 53.6707 325.106 54.179C322.816 45.5582 309.833 48.3712 303.771 43.7284C307.346 42.5968 315.158 39.8559 318.604 41.4174C322.113 43.0069 325.224 53.8606 331.6 53.2504ZM333.919 53.2501L327.362 38.6867C326.663 37.5941 325.392 37.3732 324.18 37.465C327.453 42.1765 329.873 47.4056 332.768 52.3354C333.121 52.9365 332.685 53.5056 333.919 53.2501ZM321.397 47.2097C318.765 41.7187 315.968 41.9538 310.729 43.9696C310.594 45.1714 310.731 44.7064 311.404 44.9044C314.652 45.8594 318.143 46.236 321.397 47.2097ZM142.341 86.6947C150.311 79.7817 149.826 67.8016 140.723 62.0676C129.356 54.9069 118.979 64.8119 108.239 64.9048C100.486 64.9718 91.818 59.6765 85.2812 67.4214C89.5067 67.2553 93.8014 67.0347 98.0549 67.1677C104.917 67.3823 109.171 68.6398 116.267 66.3974C119.242 65.4571 121.746 63.0371 124.609 62.2086C130.514 60.4993 137.217 63.1184 140.934 67.8946C145.223 73.4051 145.238 80.5335 142.341 86.6947ZM140.476 88.0855C143.614 79.6923 141.895 68.5811 132.767 64.9253C125.632 62.0679 122.7 65.7632 116.598 67.6584C113.913 68.4924 111.001 68.5901 108.475 69.7432C104.724 71.4554 101.779 75.269 97.467 76.8358C93.1161 78.4167 88.7519 78.0288 84.4918 80.5653C77.4573 84.7537 77.3033 93.927 67.8333 95.0055C62.5282 95.6096 49.6695 94.5004 50.4667 103.186C50.6979 105.705 52.9929 107.464 53.5176 109.439C56.3739 120.187 38.9653 121.759 37.9472 112.016C37.6933 109.586 38.4693 108.291 39.3519 106.205C35.7447 107.359 35.1735 111.826 35.849 115.055C38.3153 126.843 58.2931 125.13 56.931 111.594C56.5254 107.564 53.1769 104.847 57.2183 101.098C61.2467 97.3617 67.4574 97.9591 72.3931 96.7842C80.8853 94.7628 82.8773 86.7011 89.7787 82.6076C93.4927 80.4047 98.1564 79.8743 102.223 78.3462C112.075 74.6435 125.577 61.4815 135.862 72.0443C140.061 76.3571 140.356 80.8788 139.998 86.4486C139.966 86.9502 139.704 88.2108 140.476 88.0855ZM106.151 69.0496C95.926 67.5571 83.4744 66.7054 76.0126 75.3266C72.9488 78.8665 69.9185 87.8452 65.9824 89.4353C63.7305 90.3451 62.437 90.2715 60.6977 88.5529C60.4038 93.3446 65.851 93.0717 68.8075 90.8717C71.7725 88.6654 71.3689 86.4548 72.6706 83.5923C78.3882 71.0195 91.032 69.183 103.59 70.8972L106.151 69.0496ZM139.549 85.7636C140.239 74.4363 131.989 67.6343 120.982 70.19C115.113 71.5526 110.94 75.2441 105.788 77.7362C100.715 80.1908 94.8358 80.9999 90.0714 83.8296C84.2501 87.287 81.5655 94.5972 75.6457 97.2541C72.1277 98.833 68.9142 98.3536 65.5763 101.106C60.5708 105.234 63.3047 108.254 63.9454 113.632L66.8047 108.374C71.0816 100.349 81.8217 101.273 86.594 94.2821C87.7992 92.5165 88.4548 89.8545 89.7156 88.1181C93.9635 82.2684 102.642 83.9954 108.794 82.139C113.953 80.5822 116.871 75.7673 121.671 74.1309C127.356 72.1926 132.842 74.1689 136.413 78.9242L139.549 85.7636ZM327.885 79.7266L331.113 70.2394C330.859 69.1756 323.637 68.9241 323.897 70.4697C325.126 73.0966 325.76 76.4987 326.919 79.0754C327.104 79.487 327.111 80.4985 327.885 79.7266ZM102.439 71.8375C93.0667 69.9839 80.3887 72.6949 75.1569 81.4369C73.7181 83.8411 73.3607 86.3315 72.2341 88.7289C71.6706 89.9279 70.5976 90.5675 70.437 91.8018C74.6105 91.0603 75.8632 86.1615 78.3306 83.2213C83.7431 76.7719 90.231 76.2891 97.9308 74.5134L102.439 71.8375ZM146.976 89.9536C148.253 93.5484 151.969 89.7962 153.713 88.0996C159.385 82.5838 159.952 73.2009 150.225 73.6918C149.991 75.8459 152.347 75.995 153.401 77.7066C156.284 82.3895 151.372 88.3301 146.976 89.9536ZM137.23 84.3723C136.003 79.7021 130.036 76.6732 125.423 76.9337C112.869 77.6426 110.821 100.081 95.5964 102.367C88.5784 103.421 81.3389 101.728 74.9341 105.367C64.2149 111.456 69.7217 122.66 62.0951 128.741C57.2924 132.569 51.5985 131.934 45.8397 131.468C43.882 132.622 42.0653 134.551 41.6765 136.857C48.8995 134.871 57.0857 136.56 63.234 131.274C67.3601 127.727 68.3201 122.272 70.501 117.649C79.055 99.5187 89.5544 109.649 103.763 106.364C113.188 104.184 113.091 96.9616 117.046 89.9374C121.559 81.9247 129.29 77.9432 137.23 84.3723ZM151.961 77.5234C151.707 77.2603 150.448 76.7853 150.228 76.94L148.569 82.0194L142.804 88.5476C146.364 90.5485 149.547 88.0402 151.618 85.0728C152.966 83.1417 153.694 79.3129 151.961 77.5234ZM84.8173 100.627C92.0894 100.898 92.6932 92.928 98.4156 89.8621C103.585 87.0924 108.601 88.7617 112.841 83.8689C113.2 83.4549 115.663 79.9776 115.427 79.7279C113.369 81.0124 111.526 82.633 109.186 83.4603C104.07 85.2682 97.6858 83.751 93.1951 86.9572C89.6866 89.4621 89.7541 93.473 87.688 96.771C86.7752 98.2281 85.1644 98.9794 84.8173 100.627ZM84.8151 145.219V137.555C84.8151 136.003 87.8272 130.111 88.8835 128.624C99.5361 113.621 121.151 125.234 126.24 104.252C127.273 99.9896 126.708 91.9924 129.412 88.8487C131.852 86.011 136.098 86.834 137.242 90.4105C138.932 89.8214 137.673 87.3235 136.981 86.2524C134.325 82.1463 128.825 82.2832 124.924 84.3553C114.693 89.7897 117.875 106.426 104.756 112.002C101.138 113.54 97.1781 113.531 93.4641 115.095C81.8416 119.989 76.743 134.972 84.8151 145.219ZM108.937 89.022C101.192 89.3122 94.9988 92.4799 92.7034 100.162C99.8864 100.281 105.443 94.7115 108.937 89.022ZM136.77 90.8706C135.855 88.6896 133.576 88.7044 131.669 89.4887C131.009 90.1757 131.713 90.3279 132.359 90.4075C133.811 90.5863 135.332 90.4495 136.77 90.8706ZM125.637 112.701C131.593 112.299 136.436 109.033 141.553 106.579C143.913 105.448 148.249 105.323 148.804 101.763C149.456 97.5742 148.401 92.1016 144.142 90.2245C140.736 88.7236 139.853 91.2374 137.354 91.7145C135.433 92.0813 132.678 90.8896 130.752 92.5132C129.178 93.841 129.367 102.895 128.667 105.753C128.061 108.229 126.732 110.443 125.637 112.701ZM169.251 118.747C167.46 123.639 160.435 122.137 158.62 118.003C155.472 110.836 164.028 107.536 163.192 101.365C162.669 97.5061 157.935 96.5733 156.043 93.6401L154.404 89.9498C151.617 96.4132 160.149 98.022 160.449 103.665C160.77 109.69 154.041 112.76 156.839 119.783C159.562 126.615 171.303 127.369 170.172 118.977L169.251 118.747ZM176.044 127.726C172.088 123.602 162.529 129.655 157.259 122.15C151.548 114.016 160.305 109.457 158.928 102.824C158.181 99.2246 151.574 96.507 152.538 91.3398C148.934 93.0089 150.169 93.2488 150.565 95.8787C150.848 97.7569 151.249 99.626 151.168 101.542C154.232 101.225 155.195 103.798 155.334 106.454C155.66 112.649 151.094 119.39 155.124 125.216C159.365 131.348 167.891 127.581 174.347 130.122C175.25 130.478 176.208 131.528 176.905 131.743C178.625 132.272 176.591 128.296 176.044 127.726ZM64.8651 99.2377C64.685 99.0698 60.9853 100.255 60.378 100.546C53.1786 103.995 58.2967 108.487 57.8731 113.805C57.5786 117.503 55.6324 119.479 53.2709 121.991C56.3466 121.856 60.2649 120.04 61.5761 117.073C63.7077 112.25 60.4909 109.514 61.1888 105.07C61.6199 102.326 64.0523 101.6 64.8651 99.2377ZM107.081 106.208C95.861 111.633 82.8892 102.144 74.6906 113.948C69.8367 120.936 70.2898 130.745 61.4696 135.081C53.2258 139.135 39.1958 135.721 34.775 145.51C32.3346 150.914 36.7361 152.988 36.5396 157.493C36.2856 163.314 27.5262 167.586 23.1819 163.038L21.2686 158.692C17.892 169.813 33.0201 172.017 36.5994 162.666L37.494 158.691C39.022 167.9 27.4424 173.113 21.3318 166.284L19.4119 162.407C18.6487 173.543 33.3069 177.718 39.2767 168.598C44.7063 160.302 35.7514 155.841 37.9405 148.215C40.3007 139.994 52.7508 140.923 59.3063 139.418C76.8377 135.394 70.5864 123.805 81.6075 116.229C83.7186 114.778 87.2483 113.084 89.6749 112.23C95.5289 110.17 102.483 110.808 107.081 106.208ZM149.757 107.134C148.631 106.114 134.636 112.793 132.153 113.424C129.764 114.031 126.328 113.676 124.572 114.194C123.335 114.559 120.608 118.6 118.532 118.83L107.085 121.989C110.672 122.867 114.36 123.848 118.043 124.258C120.308 124.509 122.616 124.14 124.884 124.375C128.028 124.7 131.025 126.352 134.227 126.633C139.506 127.096 143.533 125.817 147.435 122.221C147.633 121.246 146.971 121.464 146.282 121.528C144.415 121.7 142.432 122.812 140.505 123.183C140.027 123.276 138.983 123.792 139.093 122.93C141.028 123.07 150.43 116.607 148.829 115.03C147.352 114.788 146.055 115.489 144.682 115.754C144.204 115.846 143.158 116.36 143.268 115.498C146.405 114.646 148.95 112.455 151.148 110.149L146.976 110.379L149.757 107.134ZM47.2403 130.82H54.8944C55.9269 130.82 58.5647 129.6 59.6095 129.039C65.475 125.889 65.5788 119.867 67.1829 114.099C65.0177 116.943 63.7138 120.028 60.9136 122.448C57.1413 125.709 51.4492 126.92 47.8259 129.756C47.4421 130.056 46.9826 129.742 47.2403 130.82ZM86.6704 116.426C83.4542 117.322 80.0948 119.847 78.1297 122.501C75.1465 126.529 75.2776 131.7 71.5994 135.935C67.8315 140.273 59.8077 141.986 58.5809 147.977C57.6316 152.614 61.0598 156.323 60.2337 161.011C63.6915 158.158 62.5258 153.068 63.0536 149.208C63.8952 143.054 73.581 140.004 77.1323 134.507C78.7817 131.954 78.8051 129.221 79.817 126.513C81.2659 122.635 83.8955 119.399 86.6704 116.426ZM152.076 121.068C148.987 121.919 150.821 127.314 151.982 129.291C155.311 134.955 166.449 136.398 163.212 145.679C167.737 147.413 168.753 140.975 168.202 137.664C166.914 129.921 159.516 131.688 155.316 128.275C153.208 126.562 151.96 123.764 152.076 121.068ZM104.296 122.462C101.986 122.753 101.333 126.452 101.494 128.265C101.83 132.069 107.14 135.357 107.903 139.052C108.862 143.693 106.032 145.118 105.532 149.007C105.469 149.498 105.318 151.271 106.148 151.254C106.776 147.17 111.419 143.68 111.28 139.428C111.042 132.126 100.022 130.812 104.296 122.462ZM57.9096 122.929C50.4509 125.293 38.4897 124.141 33.5855 131.315C31.6633 134.126 30.7807 138.983 33.7905 141.299L34.7115 141.299C35.4122 139.739 38.9794 138.664 39.5708 137.772C41.3642 135.068 40.4178 133.472 44.2362 130.367C48.4732 126.922 53.7189 126.057 57.9096 122.929ZM146.045 126.178C145.826 125.931 141.776 128.483 140.954 128.736C135.984 130.263 132.631 127.421 128.069 126.759C123.979 126.166 119.511 126.34 115.273 125.638C112.392 125.16 109.62 124.325 106.826 123.529C103.225 127.621 109.736 130.723 111.911 133.648C114.241 136.781 114.801 140.124 113.353 143.83C112.257 146.632 109.832 147.62 108.558 150.18C105.105 157.121 115.113 158.95 116.618 166.093C118.935 177.089 107.8 177.406 104.087 183.327C101.865 186.87 104.052 191.851 108.67 191.184C111.069 190.837 112.351 187.84 110.807 186.31C110.115 185.624 108.613 186.066 108.476 185.169C115.835 183.83 116.881 194.009 111.728 197.473C113.435 198.691 114.613 202.006 116.812 200.248C118.194 199.144 118.89 192.858 119.598 190.498C122.268 181.603 125.354 180.151 130.29 173.674C133.397 169.597 135.185 163.914 139.316 159.148C140.212 158.115 143.701 155.395 143.957 154.972C145.157 152.986 143.169 150.011 142.795 148.007C141.968 147.826 141.88 148.25 141.481 148.775C139.145 151.855 139.49 155.468 134.244 155.923C128.838 156.393 119.833 151.625 115.432 148.475C122.16 150.261 130.273 155.599 136.407 149.865C141.843 144.783 145.205 133.411 146.045 126.178ZM105.685 154.509C105.919 153.112 104.654 152.093 104.403 150.922C103.502 146.725 107.011 144.335 106.588 140.392C106.089 135.736 100.284 132.55 100.568 127.353C100.64 126.03 101.64 125.012 101.285 123.855C93.739 129.368 102.17 133.074 102.463 138.5C102.707 143.025 97.2972 146.51 101.329 151.211C101.618 151.549 105.516 154.723 105.685 154.509ZM96.412 124.787C91.4015 126.732 87.1888 134.281 86.6748 139.418C85.1948 154.209 101.019 157.895 96.43 171.48C95.6339 173.837 94.039 175.501 93.1696 177.732C97.7247 174.95 104.121 172.778 104.208 166.359C104.331 157.268 89.9676 156.721 91.3511 145.954C91.5921 144.078 93.0861 141.696 93.1305 139.828C93.1669 138.296 92.0069 136.736 91.8139 135.194C91.2657 130.813 93.6837 127.82 96.412 124.787ZM162.223 145.621C163.912 137.782 156.085 136.244 152.079 131.516L149.3 125.249C148.761 127.702 148.548 130.103 149.149 132.592C150.391 137.739 158.541 140.349 156.72 147.075L162.223 145.621ZM103.072 180.22C105.669 177.463 111.947 174.781 112.618 170.504C114.057 161.33 105.823 157.978 100.582 152.888C93.8135 146.316 101.492 143.172 100.556 137.12C100.078 134.035 95.9447 132.1 96.1825 128.5C92.2122 132.302 95.8085 136.031 95.9055 139.459C95.965 141.562 94.3098 144.268 94.1317 146.44C93.6351 152.501 100.083 154.689 103.291 159.001C104.952 161.235 107.876 166.404 108.032 169.126C108.601 178.983 95.8884 180.756 97.9108 190.401C99.5706 198.317 113.625 199.159 113.11 189.811C111.844 189.73 111.865 191.05 110.763 191.871C104.537 196.513 96.1617 187.555 103.072 180.22ZM175.168 142.326C176.508 139.37 178.809 139.157 177.213 135.609C175.347 131.458 169.241 129.995 165.067 130.36C169.481 133.693 171.387 137.805 170.173 143.359L175.168 142.326ZM156.185 147.475C156.702 142.537 153.009 139.968 150.031 136.819L147.444 131.752C144.477 139.402 152.298 142.084 152.081 148.935L156.185 147.475ZM31.0068 245.549C30.6851 257.904 44.7868 258.296 49.1851 248.19C54.0757 236.953 43.9896 233.356 43.9576 223.946C43.9351 217.357 49.6078 210.901 54.4432 207.007C58.1112 204.054 63.1531 202.366 63.8991 196.968C64.9142 189.624 59.1382 187.428 64.3928 179.347C69.7363 171.129 82.0921 169.374 84.4203 158.99C86.6962 148.839 78.6989 145.475 78.316 135.93C70.751 144.55 84.9776 150.775 80.582 159.792C78.2633 164.548 64.6288 172.348 60.2318 177.039C52.1379 185.673 60.3816 192.177 53.7237 200.713C49.2275 206.478 43.3937 209.051 41.4267 217.198C38.3043 230.131 46.9864 233.739 46.813 242.988C46.681 250.03 39.8061 253.879 34.0146 249.731L31.0068 245.549ZM185.476 137.79C182.092 137.841 180.33 140.22 178.608 142.753C174.116 149.361 172.436 159.201 172.021 167.047L171.103 162.168C170.673 156.409 171.855 150.814 172.949 145.219C158.06 149.27 149.703 165.383 148.427 179.883C146.745 199.006 157.375 217.728 169.481 231.608L170.298 230.6L173.412 222.325C173.65 227.114 170.007 232.226 172.495 236.72C173.378 236.558 173.268 235.756 173.439 235.118C176.103 225.207 179.011 210.905 175.744 201.181C172.506 191.542 166.375 182.447 166.464 171.697L170.236 182.079C170.866 183.414 174.053 189.402 175.047 189.805C175.819 190.118 175.681 189.484 175.864 189.229C178.053 186.185 174.662 177.99 175.741 174.019L179.469 184.682L182.459 183.302C183.324 181.747 181.73 178.262 181.44 176.434C179.712 165.557 180.061 150.797 184.189 140.444C184.596 139.422 185.422 138.829 185.476 137.79ZM75.5375 162.865C78.0419 162.011 80.2892 158.814 80.3907 156.144C80.5637 151.59 76.5486 148.676 75.7423 144.782C75.3572 142.922 75.5923 141.051 75.5327 139.181C66.5205 146.796 79.2075 154.366 75.5375 162.865ZM146.039 139.649L145.091 139.92C142.64 144.439 144.684 148.608 145.821 153.12C149.669 150.384 153.046 150.315 149.856 144.89C148.821 143.129 146.628 141.786 146.039 139.649ZM63.4762 140.114C56.0508 141.007 51.755 144.943 52.8474 152.842C53.3514 156.487 57.2256 159.507 56.0566 163.796C61.9613 161.423 58.0011 155.461 57.4847 151.452C56.6825 145.224 59.4471 143.892 63.4762 140.114ZM53.7323 141.506C50.1911 142.042 46.2478 142.552 43.2982 144.756C35.9372 150.255 43.0155 156.49 43.8733 162.757C45.9587 177.992 30.9767 175.107 27.7573 187.482C28.5832 187.66 28.8863 187.039 29.3978 186.57C33.5799 182.728 39.5851 178.738 43.0176 175.13C52.7395 164.912 39.4554 156.92 48.1793 146.856C50.0259 144.726 52.8392 143.965 53.7323 141.506ZM70.4344 143.366C67.92 143.912 65.173 147.31 64.955 149.748C64.8048 151.429 68.1824 154.615 68.5538 157.095C69.6839 164.642 60.5267 166.778 56.9693 170.985C55.3766 172.869 55.5305 174.717 53.5016 176.338C48.309 180.487 43.7036 180.259 39.2493 187.149C33.6489 195.813 35.8515 202.2 42.3745 209.316L49.022 202.516C43.792 193.92 48.3192 185.671 54.657 179.353C59.4708 174.554 72.7329 167.093 73.6385 160.275C74.5113 153.704 67.9425 149.913 70.4344 143.366ZM47.7089 169.836C49.4496 168.033 53.2825 166.168 53.7067 163.541C54.5973 158.025 51.1091 157.044 50.5286 152.843C50.142 150.044 50.8057 147.859 51.4106 145.219C49.1664 146.872 46.755 149.579 46.3534 152.46C45.5214 158.431 48.9369 163.926 47.7089 169.836ZM19.8757 221.393C22.3183 230.774 36.2738 227.576 37.456 218.8C38.718 209.433 27.6693 209.767 28.2655 199.863C28.7203 192.31 33.1511 189.73 37.9682 185.402C39.3884 184.126 40.6894 182.385 42.1323 181.211C45.0199 178.861 51.4265 176.613 53.2422 174.685C54.2943 173.568 54.4494 171.718 55.8288 170.308C61.2037 164.811 72.3436 162.862 65.3258 152.19L64.1683 158.685C62.4793 163.514 54.1413 166.838 50.2679 170.313C47.5277 172.772 45.4102 175.912 42.608 178.436C35.5043 184.834 25.4958 190.18 25.6181 201.575C25.6885 208.138 28.0581 207.917 31.9367 211.402C40.1065 218.744 26.4081 230.717 19.8757 221.393ZM88.9811 154.512L88.0603 154.742C88.1086 158.422 88.9883 162.085 88.4151 165.777C87.4244 172.156 80.6667 177.174 83.3224 184.107C85.7769 190.515 101.573 197.472 89.6035 204.125C84.5753 206.92 71.4554 208.347 71.4496 216.051C71.4453 221.831 79.9715 223.78 83.8493 226.308C87.9432 228.978 90.2634 232.657 88.9947 237.65C93.5765 233.65 92.6727 226.701 86.9917 224.091C83.3117 222.4 72.9122 221.557 77.4722 214.273C81.938 207.139 97.4262 212.635 99.0868 203.404C100.641 194.767 89.4595 192.506 88.1675 186.221C86.3221 177.243 97.2648 174.43 94.4207 163.702C93.4338 159.98 90.888 157.661 88.9811 154.512ZM88.0598 159.156C86.8252 158.9 87.2617 159.47 86.9086 160.071C86.1524 161.356 85.7131 162.815 84.8142 164.03C80.3931 170.004 71.9727 173.706 74.9355 183.213C76.6776 188.804 82.6529 190.172 84.9068 194.594C88.7139 202.064 76.4417 203.978 71.9768 206.449C62.0514 211.94 61.6494 226.268 73.5586 228.716C77.8657 229.601 86.0965 228.643 86.69 235.094C86.8703 237.053 85.9939 237.857 85.9794 239.513C88.6382 238.51 88.8327 235.826 88.4126 233.347C86.8518 224.14 66.2906 224.113 71.2824 213.184C74.7037 205.695 91.3286 205.5 92.6216 199.222C93.7472 193.757 82.5893 189.23 81.5961 183.046C80.4029 175.616 85.6626 172.783 87.3751 166.594C88.0494 164.156 88.1794 161.675 88.0598 159.156ZM99.6592 194.914C88.8516 181.727 110.427 179.36 106.865 167.031C106.669 166.351 106.532 165.649 105.92 165.194C107.357 177.331 89.5519 175.44 91.3415 186.762C91.7131 189.112 95.2404 192.009 97.1204 193.512C97.5444 193.852 99.2886 195.258 99.6592 194.914ZM13.3768 194.458C14.5506 199.132 17.8142 201.481 22.6854 200.291C23.3646 198.502 23.5013 196.607 24.1505 194.791C24.6917 193.277 26.4551 190.978 26.7191 189.931C27.3479 187.434 26.6818 185.928 28.2038 183.057C31.5713 176.704 40.9524 175.906 42.1329 168.443C40.6264 169.96 39.8395 171.568 38.1796 173.073C34.2015 176.679 26.4419 178.803 24.6321 184.125C23.5091 187.428 24.5112 194.603 19.5431 195.747C16.9219 196.351 15.5805 195.498 13.3768 194.458ZM56.5156 232.539C56.453 229.662 54.1634 227.313 53.7739 224.373C52.1524 212.135 59.5239 211.355 66.2656 204.91C75.295 196.279 64.3142 190.643 68.9486 181.586C69.9258 179.676 72.0897 178.636 71.3577 175.875C68.873 177.16 65.6734 180.459 65.0731 183.28C63.9005 188.79 67.3274 193.361 65.6747 199.209C63.5409 206.76 51.2317 208.78 49.3008 218.115C48.0684 224.073 50.4848 230.703 56.5156 232.539ZM57.443 228.827C57.6733 226.169 58.572 223.404 59.5412 220.937C61.5911 215.719 64.8396 207.557 69.8113 204.745C73.2736 202.786 76.6698 203.448 78.1878 198.736C80.8109 190.594 71.3176 188.018 71.3578 180.519C63.8825 188.016 75.6063 194.343 69.0312 203.035C64.9932 208.373 56.6751 210.788 55.3364 218.12C54.8239 220.928 55.0221 225.709 56.4079 228.233C56.7039 228.772 56.3907 229.014 57.443 228.827ZM50.4942 200.491C52.9968 199.814 54.6503 196.183 55.1938 193.828C56.0097 190.291 54.6479 186.552 55.1217 182.842C50.3387 187.266 47.3149 194.226 50.4942 200.491ZM38.8845 217.674L41.1058 211.483C38.3794 205.439 33.4643 203.104 33.7812 195.636C33.8886 193.104 35.407 190.842 35.4135 188.418C31.0467 192.294 27.7557 199.322 30.4485 204.996C31.8029 207.85 35.1726 209.361 36.96 211.946L38.8845 217.674ZM83.28 198.957C86.1686 195.751 81.2078 191.555 80.6419 192.134C81.4456 195.021 81.3682 197.765 80.1786 200.49C80.4579 200.776 82.9683 199.303 83.28 198.957ZM113.109 202.341C113.497 201.784 110.112 198.38 109.58 198.279C108.928 198.154 105.456 198.7 104.046 198.652C102.866 198.612 101.777 198.091 100.587 198.174C102.233 201.221 101.528 204.331 100.59 207.457L113.109 202.341ZM117.285 205.139C112.854 206.292 108.702 208.301 104.296 209.547C101.025 210.472 96.7236 210.672 93.7795 212.022C90.764 213.406 86.0655 217.747 86.2458 221.353C89.1742 221.962 91.4329 224.109 92.9965 226.541C95.3932 226.915 110.559 216.723 112.982 214.528C113.485 214.072 114.277 214.025 114.035 213.033C107.056 215.804 99.2571 218.405 91.7756 218.841L116.993 207.036L117.285 205.139ZM88.526 212.573C86.1198 212.437 83.1383 212.741 81.1322 214.222C76.4805 217.656 81.9316 221.357 83.445 220.269C83.7529 220.048 84.8869 216.787 85.5406 215.849C86.3746 214.653 87.8215 213.885 88.526 212.573ZM95.9485 256.225C98.2847 253.815 101.319 252.171 103.841 249.965C110.517 244.127 115.939 236.773 121.123 229.62L117.757 217.434C109.941 221.484 102.447 226.176 94.0595 229.059C93.5175 229.531 94.2166 230.839 94.0689 231.776C92.8401 239.565 86.1154 244.641 78.7868 240.202C86.5685 240.032 86.0266 232.615 78.8976 231.266C74.2327 230.384 70.0196 231.053 66.0302 227.429C65.4238 226.878 63.1535 223.029 62.551 223.718L63.008 231.145L61.1627 227.9L54.6647 252.975C58.7166 251.45 62.6748 249.817 66.8949 248.737C69.4081 248.094 75.3764 246.614 77.6973 246.505C81.7335 246.316 81.7379 250.379 83.1706 252.999C87.3743 260.684 94.9877 266.064 97.151 274.843L112.176 272.245C118.709 264.136 125.666 256.184 130.535 246.916L123.795 235.079C123.255 234.519 123.012 235.031 122.607 235.313C121.08 236.376 119.871 238.624 118.46 239.986C112.063 246.158 103.936 252.389 95.9485 256.225ZM43.0676 255.76C46.6095 255.553 50.3799 252.798 52.0806 249.696C53.0274 247.969 55.879 237.626 55.8416 235.82C55.8134 234.459 52.9103 233.253 51.8734 232.314C47.7329 228.565 46.175 224.227 46.7717 218.609C45.9946 218.883 45.5019 220.977 45.4245 221.664C44.3325 231.363 52.2974 235.219 51.4091 244.38C51.0892 247.68 49.3406 250.316 47.2583 252.764L43.0676 255.76ZM178.061 219.538L174.935 239.844L177.824 244.143C178.579 243.701 178.385 243.158 178.522 242.529C179.728 236.983 180.041 226.31 178.86 220.816C178.763 220.367 178.695 219.423 178.061 219.538ZM38.424 220.467L34.482 225.572C29.6399 228.967 23.1263 228.705 19.6367 223.718C19.0971 224.88 20.6836 227.39 21.5228 228.332C27.3691 234.895 40.4839 229.795 38.424 220.467ZM56.5182 260.405C62.3574 254.698 70.5674 252.048 77.8475 248.565C77.1356 247.522 76.502 247.882 75.5123 248.073C68.7092 249.384 52.0424 256.207 47.0214 260.887C42.2853 265.302 43.6078 268.092 44.4615 273.879C47.7626 271.621 50.6878 268.482 54.6623 267.381C44.2744 275.951 30.8125 291.484 46.0836 302.674L43.995 294.072C43.4423 281.419 59.7996 269.095 70.1889 264.576C74.4728 262.713 79.0995 261.898 83.4217 260.17C82.847 258.4 81.8049 257.989 80.0746 258.188C73.1888 258.98 65.3572 263.222 58.8376 265.514C64.3574 260.217 71.7105 256.147 79.2507 254.833C79.3237 253.901 78.6271 251.405 77.6422 251.287L65.018 255.683L56.5182 260.405ZM133.052 251.122L115.898 272.02L131.204 270.161C131.535 268.805 130.356 267.457 130.408 266.291C130.518 263.817 134.436 259.692 137.232 260.407L133.052 251.122ZM135.715 262.806C133.68 263.119 132.716 265.705 133.063 267.59C133.378 269.296 136.075 270.306 137.456 271.096C139.837 268.995 139.694 262.195 135.715 262.806ZM93.1659 275.735C93.2801 274.201 92.6407 272.873 92.0243 271.538C91.3993 270.184 87.9464 264.859 86.933 264.088C86.0986 263.454 81.674 264.128 81.2106 264.7C80.9575 265.012 80.016 269.222 79.8495 270.069C79.6673 270.995 78.7376 275.702 79.2218 275.983L93.1659 275.735ZM142.794 272.952C141.963 272.139 141.058 274.987 141.016 275.439L144.652 278.989L142.794 272.952ZM138.16 311.034L136.316 303.829L133.993 298.965L133.062 311.5L138.16 311.034ZM157.647 317.545C146.3 313.546 134.084 312.76 122.296 315.356C120.122 315.835 114.665 316.656 115.434 319.396C128.8 315.712 143.611 315.077 156.906 319.412L157.647 317.545Z" fill="black"/>
<path d="M310.727 167.514C307.403 175.445 294.466 180.821 286.382 181.001C285.072 181.03 285.073 180.809 286.347 180.5C293.728 178.709 302.162 175.821 305.622 168.445C304.47 168.54 302.965 168.153 301.909 168.671C301.505 168.869 297.595 173.717 296.352 174.719C286.401 182.74 271.094 181.924 261.334 174.006C259.526 172.54 256.721 169.859 256.453 167.514H310.727Z" fill="black"/>
<path d="M397.474 167.514C398.842 168.826 391.112 175.243 389.91 175.964C385.985 178.319 378.153 180.799 373.596 181.004C373.217 181.021 371.901 181.145 372.66 180.52C377.218 180.066 382.097 178.189 385.937 175.702C388.456 174.07 391.789 171.485 392.369 168.445C388.144 167.825 389.062 168.908 387.27 170.999C378.094 181.712 362.759 183.139 350.936 175.792C348.317 174.165 344.271 170.565 343.663 167.514H397.474Z" fill="black"/>
<path d="M392.83 154.042L372.882 98.3103L371.941 103.165C372.233 120.921 370.574 138.611 370.564 156.364C369.754 156.473 370.128 155.31 370.105 154.746C369.356 136.451 369.73 118.055 369.638 99.7027L368.602 100.293L349.698 150.79L370.803 85.3037L392.83 154.042Z" fill="black"/>
<path d="M304.229 149.397L286.03 99.1147L284.752 98.3092C284.627 103.799 284.905 109.322 284.769 114.815C284.622 120.765 283.988 126.94 283.803 132.891C283.559 140.722 283.896 148.558 283.353 156.364C282.544 156.473 282.917 155.31 282.894 154.746C282.145 136.451 282.523 118.054 282.428 99.7027L261.096 154.506L283.592 85.3037L304.229 149.397Z" fill="black"/>
<path d="M177.123 302.674C176.315 302.784 176.687 301.619 176.664 301.056C176.581 298.922 176.837 296.65 176.658 294.555C175.754 283.939 171.941 273.562 168.309 263.664C167.49 263.552 167.849 264.718 167.905 265.228C168.45 270.186 169.874 275.114 170.166 280.154C170.563 287.044 170.115 294.414 169.702 301.283L166.23 299.455L167.43 283.866C166.466 268.331 165.214 252.362 158.573 238.119C159.536 237.912 159.652 238.584 160.056 239.185C161.973 242.041 164.567 247.943 166.077 251.27C173.315 267.227 178.754 284.93 177.123 302.674Z" fill="black"/>
<path d="M125.637 86.6995C123.888 88.7884 122.563 90.874 122.134 93.6384C121.275 99.1799 122.283 103.907 119.066 109.146C113.671 117.934 102.921 116.885 94.0954 118.739C94.7167 117.785 96.8133 117.433 97.8775 117.192C104.835 115.616 111.145 116.158 116.542 110.334C123.173 103.178 118.822 93.645 124.051 87.6617C124.512 87.1344 124.761 86.5088 125.637 86.6995Z" fill="black"/>
<path d="M136.236 156.896C136.946 158.159 136.731 159.286 136.033 160.509C134.666 162.904 129.716 166.663 127.571 169.683C124.921 173.414 123.229 177.74 121.058 181.74L116.828 195.845C117.103 187.009 118.174 179.229 122.31 171.382C123.215 169.666 124.822 168.046 125.585 166.301C129.866 156.515 117.556 154.842 112.648 149.404C120.295 152.659 127.456 157.694 136.236 156.896Z" fill="black"/>
<path d="M84.815 145.219C76.743 134.971 81.8416 119.989 93.4641 115.095C97.1781 113.531 101.138 113.54 104.756 112.002C117.875 106.426 114.693 89.7897 124.924 84.3552C128.825 82.2831 134.325 82.1463 136.981 86.2523C137.673 87.3235 138.932 89.8214 137.242 90.4105C136.098 86.834 131.852 86.011 129.412 88.8487C126.708 91.9923 127.273 99.9896 126.24 104.252C121.151 125.234 99.5361 113.621 88.8835 128.623C87.8272 130.111 84.815 136.003 84.815 137.555V145.219ZM125.637 86.6994C124.761 86.5088 124.512 87.1344 124.051 87.6617C118.822 93.645 123.173 103.177 116.542 110.334C111.145 116.158 104.835 115.616 97.8775 117.192C96.8133 117.433 94.7167 117.785 94.0954 118.739C102.921 116.885 113.671 117.934 119.066 109.146C122.283 103.907 121.275 99.1799 122.134 93.6384C122.563 90.874 123.888 88.7884 125.637 86.6994Z" fill="black"/>
<path d="M31.0068 245.549L34.0146 249.731C39.8061 253.879 46.681 250.03 46.813 242.988C46.9864 233.739 38.3043 230.131 41.4267 217.198C43.3937 209.051 49.2275 206.478 53.7237 200.713C60.3816 192.177 52.1378 185.673 60.2318 177.039C64.6288 172.348 78.2633 164.548 80.582 159.792C84.9776 150.775 70.751 144.55 78.316 135.93C78.6989 145.475 86.6962 148.839 84.4202 158.99C82.092 169.374 69.7363 171.129 64.3928 179.347C59.1382 187.428 64.9142 189.624 63.8991 196.968C63.1531 202.366 58.1112 204.054 54.4431 207.007C49.6078 210.901 43.9351 217.357 43.9575 223.946C43.9896 233.356 54.0757 236.953 49.1851 248.19C44.7868 258.296 30.6851 257.904 31.0068 245.549Z" fill="black"/>
<path d="M140.476 88.0855C139.704 88.2108 139.966 86.9502 139.998 86.4486C140.356 80.8788 140.061 76.3571 135.862 72.0443C125.577 61.4815 112.075 74.6434 102.223 78.3462C98.1564 79.8743 93.4927 80.4047 89.7787 82.6076C82.8773 86.7011 80.8853 94.7628 72.3931 96.7842C67.4573 97.9591 61.2467 97.3617 57.2183 101.098C53.1769 104.847 56.5254 107.564 56.931 111.594C58.2931 125.13 38.3153 126.843 35.849 115.055C35.1735 111.826 35.7447 107.358 39.3519 106.205C38.4693 108.291 37.6933 109.586 37.9472 112.016C38.9653 121.759 56.3738 120.187 53.5176 109.439C52.9929 107.464 50.6979 105.705 50.4667 103.186C49.6695 94.5004 62.5282 95.6096 67.8333 95.0055C77.3033 93.927 77.4573 84.7537 84.4918 80.5653C88.7519 78.0288 93.1161 78.4167 97.467 76.8358C101.779 75.269 104.724 71.4554 108.475 69.7432C111.001 68.5901 113.913 68.4924 116.598 67.6584C122.7 65.7632 125.632 62.0679 132.767 64.9252C141.895 68.5811 143.614 79.6923 140.476 88.0855Z" fill="black"/>
<path d="M107.081 106.208C102.483 110.808 95.5289 110.17 89.6749 112.23C87.2483 113.084 83.7186 114.778 81.6075 116.229C70.5864 123.805 76.8377 135.394 59.3063 139.418C52.7508 140.923 40.3007 139.994 37.9405 148.215C35.7514 155.841 44.7063 160.302 39.2767 168.598C33.3069 177.719 18.6487 173.543 19.4119 162.407L21.3318 166.284C27.4424 173.113 39.0219 167.9 37.494 158.691L36.5994 162.666C33.0201 172.017 17.8919 169.813 21.2686 158.692L23.1819 163.038C27.5262 167.586 36.2856 163.314 36.5396 157.493C36.7361 152.988 32.3346 150.914 34.775 145.51C39.1957 135.721 53.2258 139.135 61.4696 135.081C70.2898 130.745 69.8367 120.936 74.6906 113.948C82.8892 102.144 95.861 111.633 107.081 106.208Z" fill="black"/>
<path d="M137.23 84.3723C129.29 77.9431 121.559 81.9247 117.046 89.9374C113.091 96.9615 113.188 104.184 103.763 106.363C89.5544 109.649 79.055 99.5187 70.501 117.649C68.3201 122.272 67.3601 127.727 63.234 131.274C57.0857 136.56 48.8995 134.871 41.6765 136.856C42.0653 134.55 43.882 132.622 45.8396 131.468C51.5985 131.934 57.2924 132.569 62.0951 128.741C69.7217 122.66 64.2149 111.456 74.9341 105.367C81.3389 101.728 88.5784 103.421 95.5964 102.367C110.821 100.081 112.869 77.6425 125.423 76.9337C130.036 76.6732 136.003 79.7021 137.23 84.3723Z" fill="black"/>
<path d="M88.0598 159.156C88.1794 161.675 88.0494 164.156 87.3751 166.594C85.6626 172.783 80.4029 175.616 81.5961 183.046C82.5893 189.23 93.7472 193.757 92.6216 199.222C91.3286 205.5 74.7037 205.695 71.2824 213.184C66.2906 224.113 86.8518 224.139 88.4126 233.347C88.8327 235.825 88.6382 238.51 85.9794 239.513C85.9939 237.857 86.8703 237.053 86.69 235.094C86.0965 228.643 77.8657 229.601 73.5586 228.716C61.6494 226.268 62.0514 211.94 71.9768 206.449C76.4417 203.978 81.4905 204.618 77.6834 197.149C75.4294 192.727 76.6776 188.804 74.9355 183.213C71.9727 173.706 80.3931 170.004 84.8142 164.03C85.7131 162.815 86.1524 161.356 86.9086 160.07C87.2617 159.47 86.8252 158.9 88.0598 159.156Z" fill="black"/>
<path d="M70.4344 143.366C67.9425 149.913 74.5113 153.704 73.6385 160.275C72.7329 167.093 59.4708 174.554 54.657 179.353C48.3192 185.671 43.792 193.92 49.022 202.516L42.3745 209.316C35.8515 202.2 33.6489 195.813 39.2493 187.149C43.7036 180.259 48.309 180.487 53.5016 176.338C55.5305 174.717 55.3766 172.869 56.9693 170.985C60.5267 166.778 69.6839 164.642 68.5538 157.095C68.1824 154.615 64.8048 151.429 64.955 149.748C65.173 147.31 67.92 143.912 70.4344 143.366Z" fill="black"/>
<path d="M88.9811 154.512C90.888 157.661 93.4338 159.98 94.4207 163.702C97.2648 174.43 86.3221 177.243 88.1675 186.221C89.4595 192.506 100.641 194.767 99.0868 203.404C97.4262 212.635 81.938 207.139 77.4722 214.273C72.9122 221.557 83.3117 222.4 86.9917 224.091C92.6727 226.701 93.5765 233.65 88.9947 237.65C90.2634 232.657 87.9432 228.978 83.8493 226.308C79.9715 223.78 71.4453 221.831 71.4496 216.051C71.4554 208.347 84.5752 206.92 89.6035 204.125C101.573 197.472 85.7769 190.515 83.3224 184.107C80.6667 177.174 87.4244 172.156 88.415 165.777C88.9883 162.085 88.1086 158.422 88.0603 154.742L88.9811 154.512Z" fill="black"/>
<path d="M139.549 85.7636L136.413 78.9242C132.842 74.1689 127.356 72.1925 121.671 74.1309C116.871 75.7673 113.953 80.5821 108.794 82.1389C102.642 83.9954 93.9634 82.2683 89.7156 88.1181C88.4548 89.8544 87.7992 92.5165 86.594 94.282C81.8217 101.273 71.0816 100.349 66.8047 108.374L63.9454 113.632C63.3047 108.254 60.5708 105.234 65.5763 101.106C68.9142 98.3536 72.1277 98.833 75.6456 97.2541C81.5655 94.5972 84.2501 87.2869 90.0714 83.8296C94.8358 80.9998 100.715 80.1908 105.788 77.7362C110.94 75.2441 115.113 71.5526 120.982 70.1899C131.989 67.6342 140.239 74.4363 139.549 85.7636Z" fill="black"/>
<path d="M19.8757 221.393C26.4081 230.717 40.1065 218.744 31.9367 211.402C28.0581 207.917 25.6885 208.138 25.6181 201.575C25.4958 190.18 35.5043 184.834 42.608 178.436C45.4102 175.912 47.5277 172.771 50.2679 170.313C54.1413 166.838 62.4793 163.513 64.1683 158.685L65.3258 152.19C72.3436 162.862 61.2037 164.811 55.8288 170.307C54.4494 171.718 54.2943 173.568 53.2422 174.685C51.4265 176.613 45.0199 178.861 42.1322 181.211C40.6894 182.385 39.3884 184.126 37.9682 185.402C33.1511 189.73 28.7203 192.31 28.2655 199.863C27.6693 209.767 38.718 209.433 37.456 218.8C36.2738 227.576 22.3183 230.774 19.8757 221.393Z" fill="black"/>
<path d="M103.072 180.22C96.1616 187.555 104.537 196.513 110.763 191.871C111.865 191.05 111.844 189.73 113.11 189.811C113.625 199.159 99.5706 198.317 97.9108 190.401C95.8884 180.756 108.601 178.983 108.032 169.126C107.876 166.404 104.952 161.235 103.291 159.001C100.083 154.689 93.6351 152.501 94.1317 146.44C94.3098 144.268 95.9649 141.562 95.9054 139.459C95.8085 136.031 92.2122 132.302 96.1825 128.5C95.9447 132.1 100.078 134.035 100.556 137.12C101.492 143.172 93.8135 146.316 100.582 152.888C105.823 157.978 114.057 161.33 112.618 170.504C111.947 174.781 105.669 177.463 103.072 180.22Z" fill="black"/>
<path d="M142.341 86.6947C145.238 80.5335 145.222 73.4051 140.934 67.8946C137.217 63.1184 130.514 60.4993 124.609 62.2086C121.746 63.0371 119.242 65.4571 116.267 66.3974C109.171 68.6398 104.917 67.3823 98.0549 67.1677C93.8014 67.0347 89.5067 67.2553 85.2812 67.4213C91.818 59.6765 100.486 64.9718 108.239 64.9048C118.979 64.8119 129.356 54.9069 140.723 62.0676C149.826 67.8016 150.311 79.7816 142.341 86.6947Z" fill="black"/>
<path d="M96.412 124.787C93.6837 127.82 91.2657 130.813 91.8139 135.193C92.0068 136.736 93.1669 138.296 93.1305 139.828C93.0861 141.696 91.5921 144.078 91.3511 145.954C89.9676 156.721 104.331 157.268 104.208 166.359C104.121 172.778 97.7247 174.95 93.1696 177.732C94.039 175.501 95.6339 173.837 96.43 171.48C101.019 157.895 85.1948 154.209 86.6748 139.418C87.1888 134.281 91.4015 126.732 96.412 124.787Z" fill="black"/>
<path d="M57.443 228.827C56.3907 229.014 56.7038 228.772 56.4079 228.233C55.0221 225.709 54.8239 220.928 55.3364 218.12C56.675 210.788 64.9932 208.373 69.0312 203.035C75.6063 194.343 63.8825 188.016 71.3578 180.519C71.3176 188.018 80.8109 190.594 78.1878 198.736C76.6698 203.448 73.2736 202.786 69.8113 204.745C64.8396 207.557 61.5911 215.719 59.5412 220.937C58.572 223.404 57.6733 226.169 57.443 228.827Z" fill="black"/>
<path d="M56.5156 232.538C50.4848 230.703 48.0684 224.073 49.3007 218.115C51.2317 208.78 63.5409 206.76 65.6747 199.209C67.3274 193.361 63.9005 188.79 65.0731 183.28C65.6734 180.459 68.8729 177.16 71.3577 175.875C72.0897 178.636 69.9258 179.676 68.9486 181.586C64.3142 190.643 75.295 196.279 66.2656 204.91C59.5239 211.355 52.1524 212.135 53.7739 224.373C54.1634 227.313 56.453 229.662 56.5156 232.538Z" fill="black"/>
<path d="M53.7323 141.506C52.8392 143.965 50.0259 144.726 48.1793 146.856C39.4554 156.92 52.7395 164.912 43.0176 175.13C39.5851 178.738 33.5799 182.728 29.3978 186.57C28.8863 187.039 28.5832 187.66 27.7573 187.482C30.9767 175.107 45.9586 177.992 43.8733 162.757C43.0155 156.49 35.9372 150.255 43.2982 144.756C46.2478 142.552 50.1911 142.042 53.7323 141.506Z" fill="black"/>
<path d="M176.044 127.725C176.591 128.296 178.625 132.272 176.905 131.743C176.208 131.528 175.25 130.478 174.347 130.122C167.891 127.581 159.365 131.348 155.124 125.216C151.094 119.39 155.66 112.649 155.334 106.453C155.195 103.798 154.232 101.225 151.168 101.542C151.249 99.6259 150.848 97.7568 150.565 95.8786C150.169 93.2487 148.934 93.0088 152.538 91.3397C151.574 96.5069 158.181 99.2245 158.928 102.824C160.305 109.456 151.548 114.016 157.259 122.15C162.529 129.655 172.088 123.602 176.044 127.725Z" fill="black"/>
<path d="M86.6704 116.426C83.8955 119.399 81.2659 122.635 79.817 126.513C78.8051 129.221 78.7817 131.954 77.1323 134.507C73.581 140.004 63.8952 143.054 63.0536 149.208C62.5258 153.068 63.6915 158.158 60.2337 161.011C61.0598 156.323 57.6316 152.614 58.5809 147.977C59.8077 141.986 67.8315 140.273 71.5994 135.935C75.2776 131.7 75.1464 126.529 78.1297 122.501C80.0948 119.847 83.4541 117.322 86.6704 116.426Z" fill="black"/>
<path d="M57.9096 122.929C53.7189 126.057 48.4732 126.922 44.2362 130.367C40.4178 133.472 41.3642 135.068 39.5708 137.772C38.9794 138.664 35.4122 139.739 34.7115 141.299L33.7905 141.299C30.7807 138.983 31.6632 134.126 33.5855 131.315C38.4897 124.141 50.4509 125.293 57.9096 122.929Z" fill="black"/>
<path d="M84.8173 100.627C85.1644 98.9795 86.7752 98.2281 87.688 96.771C89.7541 93.473 89.6866 89.4622 93.195 86.9573C97.6858 83.7511 104.07 85.2682 109.186 83.4603C111.526 82.633 113.369 81.0125 115.427 79.7279C115.663 79.9776 113.2 83.4549 112.841 83.869C108.601 88.7617 103.585 87.0925 98.4156 89.8621C92.6932 92.928 92.0894 100.898 84.8173 100.627Z" fill="black"/>
<path d="M102.439 71.8375L97.9308 74.5133C90.231 76.2891 83.743 76.7719 78.3306 83.2213C75.8632 86.1615 74.6105 91.0602 70.437 91.8018C70.5976 90.5675 71.6706 89.9279 72.234 88.7289C73.3607 86.3315 73.7181 83.8411 75.1569 81.4369C80.3887 72.6948 93.0667 69.9839 102.439 71.8375Z" fill="black"/>
<path d="M99.6592 194.914C99.2886 195.258 97.5444 193.852 97.1204 193.512C95.2404 192.009 91.713 189.112 91.3415 186.762C89.5519 175.44 107.357 177.331 105.92 165.194C106.532 165.649 106.669 166.351 106.865 167.031C110.427 179.36 88.8516 181.727 99.6592 194.914Z" fill="black"/>
<path d="M152.076 121.068C151.96 123.764 153.208 126.562 155.316 128.275C159.516 131.688 166.914 129.921 168.202 137.664C168.753 140.975 167.737 147.413 163.212 145.679C166.449 136.398 155.311 134.955 151.982 129.291C150.821 127.314 148.987 121.919 152.076 121.068Z" fill="black"/>
<path d="M106.151 69.0496L103.59 70.8972C91.032 69.1829 78.3882 71.0195 72.6706 83.5923C71.3689 86.4548 71.7725 88.6654 68.8075 90.8717C65.851 93.0717 60.4038 93.3446 60.6977 88.5529C62.437 90.2715 63.7305 90.3451 65.9824 89.4353C69.9185 87.8452 72.9488 78.8665 76.0126 75.3266C83.4744 66.7054 95.926 67.5571 106.151 69.0496Z" fill="black"/>
<path d="M38.8845 217.674L36.96 211.946C35.1726 209.36 31.8029 207.85 30.4485 204.996C27.7557 199.322 31.0467 192.294 35.4135 188.418C35.407 190.842 33.8886 193.104 33.7812 195.635C33.4643 203.104 38.3794 205.439 41.1058 211.483L38.8845 217.674Z" fill="black"/>
<path d="M169.251 118.747L170.172 118.977C171.303 127.369 159.562 126.615 156.839 119.783C154.041 112.76 160.77 109.69 160.449 103.665C160.149 98.0221 151.617 96.4133 154.404 89.9498L156.043 93.6401C157.935 96.5733 162.669 97.5061 163.192 101.365C164.028 107.536 155.472 110.836 158.62 118.004C160.435 122.137 167.46 123.639 169.251 118.747Z" fill="black"/>
<path d="M43.0676 255.76L47.2583 252.764C49.3405 250.316 51.0892 247.68 51.4091 244.38C52.2974 235.219 44.3325 231.363 45.4245 221.664C45.5019 220.977 45.9946 218.883 46.7717 218.609C46.175 224.228 47.7329 228.565 51.8734 232.314C52.9103 233.253 55.8134 234.459 55.8416 235.82C55.879 237.626 53.0274 247.969 52.0806 249.696C50.3799 252.798 46.6095 255.553 43.0676 255.76Z" fill="black"/>
<path d="M13.3768 194.458C15.5804 195.498 16.9219 196.351 19.5431 195.747C24.5112 194.603 23.509 187.428 24.6321 184.125C26.4419 178.803 34.2015 176.679 38.1795 173.073C39.8395 171.568 40.6264 169.96 42.1329 168.443C40.9524 175.906 31.5713 176.704 28.2038 183.057C26.6817 185.928 27.3479 187.434 26.7191 189.931C26.4551 190.978 24.6917 193.277 24.1505 194.791C23.5013 196.607 23.3646 198.502 22.6854 200.291C17.8142 201.481 14.5506 199.132 13.3768 194.458Z" fill="black"/>
<path d="M47.7089 169.836C48.9369 163.926 45.5214 158.431 46.3534 152.46C46.755 149.579 49.1664 146.872 51.4106 145.219C50.8057 147.859 50.142 150.044 50.5286 152.843C51.1091 157.044 54.5972 158.025 53.7067 163.541C53.2825 166.168 49.4496 168.033 47.7089 169.836Z" fill="black"/>
<path d="M105.685 154.509C105.516 154.723 101.618 151.549 101.329 151.211C97.2972 146.51 102.707 143.025 102.463 138.5C102.17 133.074 93.739 129.368 101.285 123.855C101.64 125.012 100.64 126.03 100.568 127.353C100.284 132.55 106.089 135.736 106.588 140.392C107.011 144.335 103.502 146.725 104.403 150.922C104.654 152.093 105.919 153.112 105.685 154.509Z" fill="black"/>
<path d="M162.223 145.621L156.72 147.075C158.541 140.349 150.391 137.739 149.149 132.592C148.548 130.103 148.761 127.702 149.3 125.249L152.079 131.516C156.085 136.244 163.912 137.782 162.223 145.621Z" fill="black"/>
<path d="M64.8651 99.2378C64.0523 101.6 61.6199 102.326 61.1888 105.07C60.4909 109.514 63.7077 112.25 61.576 117.073C60.2649 120.04 56.3466 121.856 53.2709 121.991C55.6324 119.479 57.5786 117.503 57.8731 113.805C58.2967 108.487 53.1786 103.995 60.378 100.546C60.9853 100.255 64.685 99.0699 64.8651 99.2378Z" fill="black"/>
<path d="M63.4762 140.115C59.447 143.892 56.6825 145.224 57.4847 151.452C58.0011 155.461 61.9613 161.423 56.0566 163.796C57.2256 159.507 53.3514 156.487 52.8474 152.843C51.755 144.943 56.0508 141.007 63.4762 140.115Z" fill="black"/>
<path d="M75.5375 162.865C79.2075 154.366 66.5205 146.796 75.5327 139.181C75.5923 141.051 75.3572 142.922 75.7423 144.782C76.5486 148.676 80.5637 151.59 80.3907 156.144C80.2892 158.814 78.0419 162.011 75.5375 162.865Z" fill="black"/>
<path d="M47.2403 130.82C46.9826 129.742 47.4421 130.056 47.8259 129.756C51.4492 126.92 57.1413 125.709 60.9135 122.448C63.7138 120.028 65.0177 116.943 67.1829 114.099C65.5788 119.867 65.475 125.889 59.6095 129.039C58.5647 129.6 55.9269 130.82 54.8944 130.82H47.2403Z" fill="black"/>
<path d="M175.168 142.326L170.173 143.359C171.387 137.805 169.481 133.693 165.067 130.36C169.241 129.995 175.347 131.458 177.213 135.609C178.809 139.157 176.508 139.37 175.168 142.326Z" fill="black"/>
<path d="M108.937 89.022C105.443 94.7114 99.8864 100.281 92.7034 100.162C94.9987 92.4799 101.192 89.3122 108.937 89.022Z" fill="black"/>
<path d="M104.296 122.462C100.022 130.812 111.042 132.126 111.28 139.428C111.419 143.68 106.776 147.17 106.148 151.254C105.318 151.271 105.469 149.498 105.532 149.007C106.032 145.118 108.862 143.693 107.903 139.052C107.14 135.357 101.83 132.069 101.494 128.265C101.333 126.452 101.986 122.753 104.296 122.462Z" fill="black"/>
<path d="M50.4942 200.491C47.3149 194.226 50.3387 187.267 55.1217 182.842C54.6479 186.552 56.0097 190.291 55.1938 193.828C54.6503 196.183 52.9968 199.814 50.4942 200.491Z" fill="black"/>
<path d="M146.976 89.9536C151.372 88.3301 156.284 82.3895 153.401 77.7067C152.347 75.995 149.991 75.8459 150.225 73.6919C159.952 73.201 159.385 82.5838 153.713 88.0996C151.969 89.7962 148.253 93.5485 146.976 89.9536Z" fill="black"/>
<path d="M38.424 220.467C40.4839 229.795 27.3691 234.895 21.5228 228.332C20.6836 227.39 19.0971 224.88 19.6367 223.718C23.1263 228.705 29.6399 228.967 34.482 225.572L38.424 220.467Z" fill="black"/>
<path d="M156.185 147.475L152.081 148.935C152.298 142.084 144.477 139.402 147.444 131.752L150.031 136.819C153.009 139.968 156.702 142.538 156.185 147.475Z" fill="black"/>
<path d="M146.039 139.649C146.628 141.786 148.821 143.129 149.856 144.89C153.046 150.315 149.669 150.384 145.821 153.12C144.684 148.608 142.64 144.439 145.091 139.92L146.039 139.649Z" fill="black"/>
<path d="M151.961 77.5233C153.694 79.3128 152.966 83.1416 151.618 85.0728C149.547 88.0401 146.364 90.5484 142.804 88.5476L148.569 82.0193L150.228 76.94C150.448 76.7853 151.707 77.2602 151.961 77.5233Z" fill="black"/>
<path d="M136.77 90.8705C135.332 90.4494 133.811 90.5862 132.359 90.4074C131.713 90.3278 131.009 90.1756 131.669 89.4886C133.576 88.7043 135.855 88.6896 136.77 90.8705Z" fill="black"/>
<path d="M149.757 107.134L146.976 110.379L151.148 110.149C148.95 112.455 146.405 114.646 143.268 115.498C143.158 116.36 144.204 115.846 144.681 115.754C146.055 115.489 147.352 114.788 148.829 115.03C150.43 116.607 141.028 123.07 139.093 122.93C138.983 123.792 140.027 123.276 140.505 123.183C142.432 122.812 144.415 121.7 146.282 121.528C146.971 121.464 147.633 121.246 147.435 122.221C143.533 125.817 139.506 127.096 134.227 126.633C131.025 126.352 128.028 124.7 124.884 124.375C122.616 124.14 120.308 124.509 118.043 124.258C114.36 123.848 110.672 122.867 107.085 121.989L118.532 118.83C120.608 118.6 123.335 114.559 124.572 114.194C126.328 113.676 129.764 114.031 132.153 113.424C134.636 112.793 148.631 106.114 149.757 107.134Z" fill="#E3E3E3"/>
</svg>
